<svg xmlns="http://www.w3.org/2000/svg" width="3840" height="1082" viewBox="0 0 3840 1082" fill="none">
<rect width="3840" height="1080" transform="translate(0 2)" fill="#030E25"/>
<mask id="mask0_609_2304" style="mask-type:alpha" maskUnits="userSpaceOnUse" x="0" y="2" width="3840" height="1080">
<rect y="2" width="3840" height="1080" fill="#D9D9D9"/>
</mask>
<g mask="url(#mask0_609_2304)">
<g opacity="0.2" filter="url(#filter0_f_609_2304)">
<ellipse cx="1919.5" cy="541.5" rx="621.5" ry="625.5" fill="#008CFF" fill-opacity="0.2"/>
</g>
<g filter="url(#filter1_f_609_2304)">
<ellipse cx="461.5" cy="1.5" rx="277.5" ry="251.5" fill="#008CFF" fill-opacity="0.2"/>
</g>
<g opacity="0.6" filter="url(#filter2_f_609_2304)">
<ellipse cx="1919.5" cy="1.5" rx="756.5" ry="251.5" fill="#1A98FF" fill-opacity="0.2"/>
</g>
<g opacity="0.2" filter="url(#filter3_f_609_2304)">
<ellipse cx="1919.5" cy="1214.5" rx="756.5" ry="251.5" fill="#1A98FF" fill-opacity="0.2"/>
</g>
<g opacity="0.7" filter="url(#filter4_f_609_2304)">
<ellipse cx="3722.5" cy="87.5" rx="277.5" ry="251.5" fill="#56B1FC" fill-opacity="0.2"/>
</g>
<g filter="url(#filter5_f_609_2304)">
<ellipse cx="1919.5" cy="541.5" rx="219.5" ry="220.5" fill="#EE9173" fill-opacity="0.145098"/>
</g>
</g>
<mask id="mask1_609_2304" style="mask-type:alpha" maskUnits="userSpaceOnUse" x="0" y="2" width="3807" height="16">
<rect y="2" width="3807" height="16" fill="url(#paint0_linear_609_2304)"/>
</mask>
<g mask="url(#mask1_609_2304)">
<path d="M3652 5H3778L3773 10H3647L3652 5Z" fill="#195EDD" fill-opacity="0.478431"/>
<path d="M1443 12H1509L1504 17H1438L1443 12Z" fill="#195FDC" fill-opacity="0.231373"/>
<path d="M184 12H408L403 17H179L184 12Z" fill="#1C5CD1" fill-opacity="0.231373"/>
<circle cx="1515" cy="16" r="2" fill="#1A62DE" fill-opacity="0.152941"/>
<circle cx="1531" cy="16" r="2" fill="#1B60DC" fill-opacity="0.290196"/>
<circle cx="1547" cy="16" r="2" fill="#1A5FDF" fill-opacity="0.407843"/>
<circle cx="1563" cy="16" r="2" fill="#1A62DE" fill-opacity="0.152941"/>
<circle cx="1579" cy="16" r="2" fill="#1A5FDF" fill-opacity="0.407843"/>
<circle cx="2898" cy="15" r="2" fill="#1D5EDA" fill-opacity="0.137255"/>
<circle cx="2914" cy="15" r="2" fill="#1B60DC" fill-opacity="0.290196"/>
<circle cx="2930" cy="15" r="2" fill="#1A5EDE" fill-opacity="0.67451"/>
<circle cx="2946" cy="15" r="2" fill="#1A62DE" fill-opacity="0.152941"/>
<circle cx="2962" cy="15" r="2" fill="#1A5FDF" fill-opacity="0.407843"/>
<path d="M3780 5H3807V10H3775L3780 5Z" fill="#1C5CD1" fill-opacity="0.231373"/>
<path d="M3807 2H3652L3645 9H2093" stroke="#1C5CD1" stroke-opacity="0.258824"/>
<path fill-rule="evenodd" clip-rule="evenodd" d="M2010 10H1627V9H2010V10Z" fill="#1B60DC" fill-opacity="0.290196"/>
<path fill-rule="evenodd" clip-rule="evenodd" d="M1588 9H1V8H1588V9Z" fill="#195EDD" fill-opacity="0.509804"/>
<rect x="2017" y="7" width="48" height="4" fill="#1B60DC" fill-opacity="0.290196"/>
<rect x="1586" y="13" width="161" height="4" fill="#195EDD" fill-opacity="0.509804"/>
<rect x="2975" y="13" width="833" height="4" fill="#1C5CD1" fill-opacity="0.231373"/>
<path d="M4 6H69L66 9H1L4 6Z" fill="#1A5FDE"/>
<path d="M2.06836 14.4545H167.068" stroke="#1B60DC" stroke-opacity="0.258824" stroke-dasharray="3 3"/>
<path d="M2.06836 14.4545H167.068" stroke="#1A5EDE" stroke-opacity="0.678431" stroke-dasharray="1 5"/>
<path d="M415.99 14.5H1431.99" stroke="#1C5CD1" stroke-dasharray="2 4"/>
<path d="M2391 15H2892" stroke="#1A5DDD" stroke-opacity="0.447059" stroke-dasharray="2 4"/>
<path d="M1754 15H1972" stroke="#1A5DDD" stroke-opacity="0.447059" stroke-dasharray="2 4"/>
</g>
<mask id="mask2_609_2304" style="mask-type:alpha" maskUnits="userSpaceOnUse" x="0" y="2" width="3807" height="16">
<rect y="2" width="3807" height="16" fill="url(#paint1_linear_609_2304)"/>
</mask>
<g mask="url(#mask2_609_2304)">
<path d="M4 6H69L66 9H1L4 6Z" fill="#22A7FF" fill-opacity="0.411765"/>
<path d="M3652 5H3778L3773 10H3647L3652 5Z" fill="#23A8FF" fill-opacity="0.313726"/>
<path d="M1443 12H1509L1504 17H1438L1443 12Z" fill="#195FDC" fill-opacity="0.231373"/>
<path d="M184 12H408L403 17H179L184 12Z" fill="#1FAAFF" fill-opacity="0.0941176"/>
<circle cx="1515" cy="16" r="2" fill="#1A62DE" fill-opacity="0.152941"/>
<circle cx="1531" cy="16" r="2" fill="#1B60DC" fill-opacity="0.290196"/>
<circle cx="1547" cy="16" r="2" fill="#1A5FDF" fill-opacity="0.407843"/>
<circle cx="1563" cy="16" r="2" fill="#1A62DE" fill-opacity="0.152941"/>
<circle cx="1579" cy="16" r="2" fill="#1A5FDF" fill-opacity="0.407843"/>
<circle cx="2898" cy="15" r="2" fill="#1D5EDA" fill-opacity="0.137255"/>
<circle cx="2914" cy="15" r="2" fill="#1B60DC" fill-opacity="0.290196"/>
<circle cx="2930" cy="15" r="2" fill="#1A5EDE" fill-opacity="0.67451"/>
<circle cx="2946" cy="15" r="2" fill="#1A62DE" fill-opacity="0.152941"/>
<circle cx="2962" cy="15" r="2" fill="#1A5FDF" fill-opacity="0.407843"/>
<path d="M3780 5H3807V10H3775L3780 5Z" fill="#27B0FF" fill-opacity="0.0509804"/>
<path d="M3807 2.56088H3652L3645 9.56088H2093" stroke="#21A8FF" stroke-opacity="0.207843"/>
<path fill-rule="evenodd" clip-rule="evenodd" d="M2010 10H1627V9H2010V10Z" fill="#21AAFF" fill-opacity="0.211765"/>
<path fill-rule="evenodd" clip-rule="evenodd" d="M1588 9H1V8H1588V9Z" fill="#22A7FF" fill-opacity="0.411765"/>
<rect x="2017" y="7" width="48" height="4" fill="#1B60DC" fill-opacity="0.290196"/>
<rect x="1586" y="13" width="161" height="4" fill="#195EDD" fill-opacity="0.509804"/>
<rect x="2975" y="13" width="833" height="4" fill="#1FA7FF" fill-opacity="0.160784"/>
<path d="M2.06836 14.4545H167.068" stroke="#20A4FF" stroke-opacity="0.121569" stroke-dasharray="3 3"/>
<path d="M2.06836 14.4545H167.068" stroke="#23A7FF" stroke-opacity="0.309804" stroke-dasharray="1 5"/>
<path d="M415.99 14.5H1431.99" stroke="#21A7FF" stroke-opacity="0.619608" stroke-dasharray="2 4"/>
<path d="M2391 15H2892" stroke="#1A5DDD" stroke-opacity="0.447059" stroke-dasharray="2 4"/>
<path d="M1754 15H1972" stroke="#1A5DDD" stroke-opacity="0.447059" stroke-dasharray="2 4"/>
</g>
<g filter="url(#filter6_d_609_2304)">
<rect x="721" y="8" width="77" height="1" fill="#63BDFF" fill-opacity="0.290196" shape-rendering="crispEdges"/>
</g>
<g filter="url(#filter7_d_609_2304)">
<rect x="1021" y="7" width="37" height="1" fill="#63BDFF" fill-opacity="0.290196" shape-rendering="crispEdges"/>
</g>
<g filter="url(#filter8_d_609_2304)">
<rect x="2755" y="10" width="77" height="1" fill="#63BDFF" fill-opacity="0.290196" shape-rendering="crispEdges"/>
</g>
<g filter="url(#filter9_d_609_2304)">
<rect x="3060" y="9" width="37" height="1" fill="#63BDFF" fill-opacity="0.290196" shape-rendering="crispEdges"/>
</g>
<defs>
<filter id="filter0_f_609_2304" x="898" y="-484" width="2043" height="2051" filterUnits="userSpaceOnUse" color-interpolation-filters="sRGB">
<feFlood flood-opacity="0" result="BackgroundImageFix"/>
<feBlend mode="normal" in="SourceGraphic" in2="BackgroundImageFix" result="shape"/>
<feGaussianBlur stdDeviation="200" result="effect1_foregroundBlur_609_2304"/>
</filter>
<filter id="filter1_f_609_2304" x="-216" y="-650" width="1355" height="1303" filterUnits="userSpaceOnUse" color-interpolation-filters="sRGB">
<feFlood flood-opacity="0" result="BackgroundImageFix"/>
<feBlend mode="normal" in="SourceGraphic" in2="BackgroundImageFix" result="shape"/>
<feGaussianBlur stdDeviation="200" result="effect1_foregroundBlur_609_2304"/>
</filter>
<filter id="filter2_f_609_2304" x="763" y="-650" width="2313" height="1303" filterUnits="userSpaceOnUse" color-interpolation-filters="sRGB">
<feFlood flood-opacity="0" result="BackgroundImageFix"/>
<feBlend mode="normal" in="SourceGraphic" in2="BackgroundImageFix" result="shape"/>
<feGaussianBlur stdDeviation="200" result="effect1_foregroundBlur_609_2304"/>
</filter>
<filter id="filter3_f_609_2304" x="763" y="563" width="2313" height="1303" filterUnits="userSpaceOnUse" color-interpolation-filters="sRGB">
<feFlood flood-opacity="0" result="BackgroundImageFix"/>
<feBlend mode="normal" in="SourceGraphic" in2="BackgroundImageFix" result="shape"/>
<feGaussianBlur stdDeviation="200" result="effect1_foregroundBlur_609_2304"/>
</filter>
<filter id="filter4_f_609_2304" x="3045" y="-564" width="1355" height="1303" filterUnits="userSpaceOnUse" color-interpolation-filters="sRGB">
<feFlood flood-opacity="0" result="BackgroundImageFix"/>
<feBlend mode="normal" in="SourceGraphic" in2="BackgroundImageFix" result="shape"/>
<feGaussianBlur stdDeviation="200" result="effect1_foregroundBlur_609_2304"/>
</filter>
<filter id="filter5_f_609_2304" x="1500" y="121" width="839" height="841" filterUnits="userSpaceOnUse" color-interpolation-filters="sRGB">
<feFlood flood-opacity="0" result="BackgroundImageFix"/>
<feBlend mode="normal" in="SourceGraphic" in2="BackgroundImageFix" result="shape"/>
<feGaussianBlur stdDeviation="100" result="effect1_foregroundBlur_609_2304"/>
</filter>
<filter id="filter6_d_609_2304" x="714" y="1" width="91" height="15" filterUnits="userSpaceOnUse" color-interpolation-filters="sRGB">
<feFlood flood-opacity="0" result="BackgroundImageFix"/>
<feColorMatrix in="SourceAlpha" type="matrix" values="0 0 0 0 0 0 0 0 0 0 0 0 0 0 0 0 0 0 127 0" result="hardAlpha"/>
<feOffset/>
<feGaussianBlur stdDeviation="3.5"/>
<feComposite in2="hardAlpha" operator="out"/>
<feColorMatrix type="matrix" values="0 0 0 0 0 0 0 0 0 0.588235 0 0 0 0 1 0 0 0 0.67 0"/>
<feBlend mode="normal" in2="BackgroundImageFix" result="effect1_dropShadow_609_2304"/>
<feBlend mode="normal" in="SourceGraphic" in2="effect1_dropShadow_609_2304" result="shape"/>
</filter>
<filter id="filter7_d_609_2304" x="1014" y="0" width="51" height="15" filterUnits="userSpaceOnUse" color-interpolation-filters="sRGB">
<feFlood flood-opacity="0" result="BackgroundImageFix"/>
<feColorMatrix in="SourceAlpha" type="matrix" values="0 0 0 0 0 0 0 0 0 0 0 0 0 0 0 0 0 0 127 0" result="hardAlpha"/>
<feOffset/>
<feGaussianBlur stdDeviation="3.5"/>
<feComposite in2="hardAlpha" operator="out"/>
<feColorMatrix type="matrix" values="0 0 0 0 0 0 0 0 0 0.588235 0 0 0 0 1 0 0 0 0.67 0"/>
<feBlend mode="normal" in2="BackgroundImageFix" result="effect1_dropShadow_609_2304"/>
<feBlend mode="normal" in="SourceGraphic" in2="effect1_dropShadow_609_2304" result="shape"/>
</filter>
<filter id="filter8_d_609_2304" x="2748" y="3" width="91" height="15" filterUnits="userSpaceOnUse" color-interpolation-filters="sRGB">
<feFlood flood-opacity="0" result="BackgroundImageFix"/>
<feColorMatrix in="SourceAlpha" type="matrix" values="0 0 0 0 0 0 0 0 0 0 0 0 0 0 0 0 0 0 127 0" result="hardAlpha"/>
<feOffset/>
<feGaussianBlur stdDeviation="3.5"/>
<feComposite in2="hardAlpha" operator="out"/>
<feColorMatrix type="matrix" values="0 0 0 0 0 0 0 0 0 0.588235 0 0 0 0 1 0 0 0 0.67 0"/>
<feBlend mode="normal" in2="BackgroundImageFix" result="effect1_dropShadow_609_2304"/>
<feBlend mode="normal" in="SourceGraphic" in2="effect1_dropShadow_609_2304" result="shape"/>
</filter>
<filter id="filter9_d_609_2304" x="3053" y="2" width="51" height="15" filterUnits="userSpaceOnUse" color-interpolation-filters="sRGB">
<feFlood flood-opacity="0" result="BackgroundImageFix"/>
<feColorMatrix in="SourceAlpha" type="matrix" values="0 0 0 0 0 0 0 0 0 0 0 0 0 0 0 0 0 0 127 0" result="hardAlpha"/>
<feOffset/>
<feGaussianBlur stdDeviation="3.5"/>
<feComposite in2="hardAlpha" operator="out"/>
<feColorMatrix type="matrix" values="0 0 0 0 0 0 0 0 0 0.588235 0 0 0 0 1 0 0 0 0.67 0"/>
<feBlend mode="normal" in2="BackgroundImageFix" result="effect1_dropShadow_609_2304"/>
<feBlend mode="normal" in="SourceGraphic" in2="effect1_dropShadow_609_2304" result="shape"/>
</filter>
<linearGradient id="paint0_linear_609_2304" x1="0" y1="17.9815" x2="3807" y2="17.9815" gradientUnits="userSpaceOnUse">
<stop offset="0.312629" stop-color="#D9D9D9"/>
<stop offset="0.369623" stop-color="#D9D9D9" stop-opacity="0"/>
<stop offset="0.663293" stop-color="#D9D9D9" stop-opacity="0"/>
<stop offset="0.723" stop-color="#D9D9D9" stop-opacity="0.835487"/>
<stop offset="0.780494" stop-color="#D9D9D9"/>
</linearGradient>
<linearGradient id="paint1_linear_609_2304" x1="0" y1="17.9815" x2="3807" y2="17.9815" gradientUnits="userSpaceOnUse">
<stop offset="0.091603" stop-color="#D9D9D9"/>
<stop offset="0.208384" stop-color="#D9D9D9" stop-opacity="0"/>
<stop offset="0.797036" stop-color="#D9D9D9" stop-opacity="0"/>
<stop offset="0.866444" stop-color="#D9D9D9"/>
</linearGradient>
</defs>
</svg>